Simulation
nRows=49
nColumns=15
endheader
time  TH_x TH_y TH_z SC_y  SC_z  SC_x  AC_y  AC_z  AC_x  GH_y  GH_z  GH_yy  EL_x  PS_y
2.25  0.000000  0.000000  0.000000  -42.421950859685765  4.872874976932357  -0.06287600534598836  48.07369488641556  10.274272989909573  5.645036369103812  32.51595561223376  22.357296692696266  -31.613839871994944  101.27397768296542  120.000000
2.2600000000000002  0.000000  0.000000  0.000000  -42.25876526129344  4.726255745325144  -0.4413499424813359  47.809378861331275  10.054909195298203  5.473414383230593  31.105700025987062  21.516021276906415  -29.58442088841574  101.35289054207914  120.000000
2.27  0.000000  0.000000  0.000000  -42.09445596516708  4.580470403996113  -0.8098190349975048  47.54190153086557  9.845479306416781  5.300976917882964  29.606714056707617  20.688480369078867  -27.471226195697703  101.3547404724253  120.000000
2.2800000000000002  0.000000  0.000000  0.000000  -41.929564502860494  4.435924287434804  -1.1689252943940058  47.272339806484084  9.647360282437488  5.129278211014246  28.01661191265244  19.877104885053246  -25.27342373833676  101.28026276365199  120.000000
2.29  0.000000  0.000000  0.000000  -41.76469140414285  4.293110843978279  -1.519436798456669  47.001798972963236  9.461998101583093  4.960080187786067  26.33300774576224  19.084261869528163  -22.98982492183913  101.1303001238093  120.000000
2.3000000000000003  0.000000  0.000000  0.000000  -41.60060866737828  4.152537650511614  -1.8622410434704846  46.73138702500376  9.29092619309746  4.795351707656522  24.553555396661423  18.312287228133734  -20.618990975897038  100.9057852261475  120.000000
2.31  0.000000  0.000000  0.000000  -41.43813404356349  4.014823898891437  -2.198427265478438  46.462178942462614  9.135721587233723  4.637246794514141  22.676232795652705  17.563445724203536  -18.159608849253946  100.60769389336828  120.000000
2.32  0.000000  0.000000  0.000000  -41.2780653283731  3.880654250871155  -2.5293409854943203  46.195212990919295  8.998002468822452  4.488078754415099  20.699510735073645  16.839911524734962  -15.610771413349172  100.23702580378408  120.000000
2.33  0.000000  0.000000  0.000000  -41.12129670263646  3.750603184329756  -2.856563431289804  45.93150184422774  8.879520027623922  4.350242837493509  18.62268537965107  16.143815382391313  -12.972300983169196  99.79483741670978  120.000000
2.34  0.000000  0.000000  0.000000  -40.96869957565658  3.6252504920803132  -3.1819111562587477  45.67200149462025  8.782066402095875  4.2262026592889645  16.44616505023372  15.477132926277957  -10.245080873980692  99.28227982369499  120.000000
2.35  0.000000  0.000000  0.000000  -40.820915590045715  3.5052480909476103  -3.507456789284414  45.417476741012194  8.707408207828362  4.118492189196132  14.171519363260542  14.841557382784579  -7.4311037224919545  98.70063522754403  120.000000
2.36  0.000000  0.000000  0.000000  -40.67833671428435  3.3912065429142775  -3.8355771968005143  45.168464775137906  8.657408886626522  4.02966878567265  11.80119982450638  14.238500467156628  -4.5331824068671205  98.0514075544848  120.000000
2.37  0.000000  0.000000  0.000000  -40.54121038299449  3.283635217885146  -4.16839313681555  44.92542345794299  8.63363657364425  3.9618599197010775  9.339045506100067  13.669114007829796  -1.5553987584726723  97.33645331513662  120.000000
2.38  0.000000  0.000000  0.000000  -40.409640454533616  3.183102090017713  -4.506798415396079  44.68887374614161  8.636285619980999  3.916383775686269  6.791102804374293  13.134129686110558  1.4960411875367214  96.55810065216288  120.000000
2.39  0.000000  0.000000  0.000000  -40.28360288697845  3.0902907541133295  -4.850369950108948  44.45932149589301  8.66404755126184  3.8937507478782662  4.1661888144844905  12.633737571380848  4.612206342132615  95.71916634500394  120.000000
2.4  0.000000  0.000000  0.000000  -40.16302531233275  3.005820486894887  -5.1980528768546534  44.23711906788298  8.714936945231798  3.8939284726102352  1.4750928147656133  12.167697356309754  7.782247362583275  94.82294181160822  120.000000
2.41  0.000000  0.000000  0.000000  -40.04784148049339  2.9302442293249347  -5.548761168705717  44.02235319860657  8.786824624872017  3.916702798208565  -1.269862592973677  11.735419611719891  10.993866319491989  93.87307514131162  120.000000
2.42  0.000000  0.000000  0.000000  -39.937998435802484  2.864155320804191  -5.901527623334404  43.81491726043754  8.877486384764863  3.961831479598552  -4.054833050758065  11.335950595035643  14.233285180453876  92.87350860615638  120.000000
2.43  0.000000  0.000000  0.000000  -39.833428701729424  2.8082699672014995  -6.255508492876134  43.61470125858221  8.984559315627623  4.029021283920419  -6.864109880230952  10.96803162110209  17.48488886533888  91.82831149719051  120.000000
2.44  0.000000  0.000000  0.000000  -39.7339774680393  2.7634226197583986  -6.609672302445167  43.421790638634455  9.105387260255222  4.117593696100288  -9.68005394891049  10.630133812219679  20.731042095051507  90.74153769505622  120.000000
2.45  0.000000  0.000000  0.000000  -39.63936161929358  2.7303894971926073  -6.962517428915613  43.23655416163381  9.237044631572406  4.226132317250212  -12.482872708104729  10.320502607238137  23.9517716545431  89.61701086684853  120.000000
2.46  0.000000  0.000000  0.000000  -39.549118739190455  2.7096565786750233  -7.312180990736733  43.05946247054933  9.376544157047581  4.352677757555426  -15.251917838809334  10.037185107683992  27.126028290927078  88.45826685770187  120.000000
2.47  0.000000  0.000000  0.000000  -39.46292419132807  2.7013688078818316  -7.65661816026026  42.89088893557071  9.520879724498466  4.495078265766415  -17.966134102896156  9.778017333122298  30.23224541596174  87.26855328731165  120.000000
2.48  0.000000  0.000000  0.000000  -39.380859656520926  2.70541747726924  -7.9938554303077085  42.731115014002754  9.667191506936708  4.651292239623505  -20.604487660103647  9.540529307315763  33.248856904297234  86.05095029234818  120.000000
2.49  0.000000  0.000000  0.000000  -39.30307874266281  2.721542165351221  -8.321973263205429  42.58037455911718  9.812703760827816  4.819397096651689  -23.148227702008256  9.32218210870809  36.15658679720645  84.80863349857347  120.000000
2.5  0.000000  0.000000  0.000000  -39.22967238827089  2.749381482207253  -8.638903726871733  42.43915083387946  9.954751056709128  4.997189544410198  -25.58071736606623  9.120375020949538  38.93823175021181  83.54475339006707  120.000000
2.5100000000000002  0.000000  0.000000  0.000000  -39.16074823442126  2.788317566899231  -8.942048073782429  42.30820978025515  10.090646755373877  5.181833666929374  -27.88786195314104  8.93250224151054  41.57916507960605  82.26229105205137  120.000000
2.52  0.000000  0.000000  0.000000  -39.09657291560907  2.8369584277365845  -9.228423701175274  42.188483853584906  10.21800119222381  5.369924089672984  -30.05918526255391  8.756198143031249  44.068502115428096  80.96383253157656  120.000000
2.5300000000000002  0.000000  0.000000  0.000000  -39.03762200669678  2.89298823274229  -9.495636685945447  42.08084134900995  10.335475376282316  5.558244114010098  -32.08793389598825  8.58945435506051  46.39926118054937  79.65145065578099  120.000000
2.54  0.000000  0.000000  0.000000  -38.984417019295485  2.9537982470281245  -9.742105458740097  41.98603201700301  10.44274070630173  5.7441654924312635  -33.970986585456586  8.4303762172898  48.5681464836611  78.3267812389069  120.000000
2.5500000000000003  0.000000  0.000000  0.000000  -38.93747127985801  3.016846849507368  -9.96674567996233  41.904786127374  10.54015176856681  5.925438022636784  -35.707986139269636  8.277099327325079  50.57467700717768  76.99114267969622  120.000000
2.56  0.000000  0.000000  0.000000  -38.89727355507987  3.079612346531214  -10.168839128042944  41.8378517638287  10.628655231943402  6.100044798032113  -37.30111004579519  8.127864460151136  52.420956988208495  75.6455452753796  120.000000
2.57  0.000000  0.000000  0.000000  -38.86425780198453  3.1396208042278766  -10.347966778248725  41.78590157807207  10.709637304227307  6.266164677174762  -38.75472140650521  7.981052960044295  54.11135583132653  74.29071294823626  120.000000
2.58  0.000000  0.000000  0.000000  -38.838780789055875  3.194541174534249  -10.503983305242656  41.749492730930996  10.784774163599836  6.422213451972728  -40.075155171371065  7.835190616514725  55.65226791083403  72.92715169005982  120.000000
2.59  0.000000  0.000000  0.000000  -38.82107771710227  3.242241331884582  -10.637050487557328  41.728977756765815  10.85590264560191  6.566869385264859  -41.27004648008004  7.688956808559685  57.05146686731824  71.5552025125875  120.000000
2.6  0.000000  0.000000  0.000000  -38.81122957679628  3.2808138738418755  -10.747659216231646  41.72445379269114  10.924891956271997  6.699107358076888  -42.3478747351284  7.54120328671621  58.317597672124805  70.17508866090301  120.000000
2.61  0.000000  0.000000  0.000000  -38.80912466770911  3.3086362586165805  -10.836677211834434  41.7356400226777  10.993477500436473  6.818234630184152  -43.317018486837156  7.390945449005624  59.45922438378112  68.78694787926734  120.000000
2.62  0.000000  0.000000  0.000000  -38.81440113278734  3.324451688518383  -10.905398498594375  41.76182538119297  11.06311202550825  6.923942191140016  -44.18504067665181  7.237364746928743  60.484071619025386  67.39088208019585  120.000000
2.63  0.000000  0.000000  0.000000  -38.82635994440764  3.3274922472802384  -10.955654920661823  41.80176765198952  11.134815028809905  7.016357065885832  -44.95733046437155  7.0797858012416865  61.397694523183226  65.98699127285249  120.000000
2.64  0.000000  0.000000  0.000000  -38.84385898110624  3.3176306918741907  -10.989995550740655  41.85368842539812  11.209091797171872  7.096135706282557  -45.6357791472479  6.917654029180191  62.202118537477354  64.57543822182954  120.000000
2.65  0.000000  0.000000  0.000000  -38.865166476090764  3.2955979791751213  -11.012062529966501  41.91527382177643  11.285950136387507  7.164602813277999  -46.21632143046236  6.75043437459091  62.89338785588468  63.15651354506415  120.000000
2.66  0.000000  0.000000  0.000000  -38.887771327665156  3.2630937477023756  -11.027256029791245  41.98377149925751  11.36520370892044  7.224031220783347  -46.68609708369765  6.577521085378416  63.45859888239112  61.73068591228069  120.000000
2.67  0.000000  0.000000  0.000000  -38.908871530712624  3.2223544174790777  -11.04166689277179  42.05629325936673  11.446599044423396  7.277234795128627  -47.026793275460506  6.398303703407528  63.87933422854781  60.298588556291755  120.000000
2.68  0.000000  0.000000  0.000000  -38.92667499913932  3.1753110192602985  -11.058229768134103  42.130672446556915  11.529350182371665  7.326090165149553  -47.23083756420739  6.212486708222451  64.14823646933436  58.86103185853655  120.000000
2.69  0.000000  0.000000  0.000000  -38.940587083008545  3.1232450525329405  -11.076664191814297  42.205644556466694  11.612408084591337  7.371350216944424  -47.303101708675904  6.020158022695562  64.2707013055476  57.419023380980015  120.000000
2.7  0.000000  0.000000  0.000000  -38.95048579246884  3.0670661349052635  -11.09647136043779  42.2804667242303  11.695194915127571  7.41360679945522  -47.248450275596824  5.821557280564484  64.25188511859879  55.973866968509604  120.000000
2.71  0.000000  0.000000  0.000000  -38.9564426594439  3.0075918373966117  -11.11741792779599  42.35477132036124  11.777472465365792  7.45338162800424  -47.068478703681066  5.617006541834735  64.09350306151413  54.52722364469882  120.000000
2.72  0.000000  0.000000  0.000000  -38.958547408317756  2.945615808741226  -11.139219127425584  42.428590557902275  11.85913864033928  7.490996511843964  -46.76349219686308  5.407009426955874  63.79599424532449  53.0811191774317  120.000000
2.73  0.000000  0.000000  0.000000  -38.956846635015225  2.8818377960549073  -11.161623770929861  42.5021118519514  11.940172059073504  7.526644196235141  -46.33165807073338  5.1922924411939615  63.357762787418  51.637870881787975  120.000000
